<svg width="205" height="184" viewBox="0 0 205 184" fill="none" xmlns="http://www.w3.org/2000/svg">
<path d="M0 115C0 71.3695 35.3695 36 79 36H185C196.046 36 205 44.9543 205 56V62C205 105.63 169.63 141 126 141H20C8.95431 141 0 132.046 0 121V115Z" fill="white"/>
<path d="M77.955 113.74C78.1883 113.74 78.305 113.857 78.305 114.09C78.305 114.323 78.1883 114.44 77.955 114.44C77.7217 114.44 77.605 114.323 77.605 114.09C77.605 113.857 77.7217 113.74 77.955 113.74ZM76.87 112.795C77.1033 112.795 77.22 112.912 77.22 113.145C77.22 113.378 77.1033 113.495 76.87 113.495C76.6367 113.495 76.52 113.378 76.52 113.145C76.52 112.912 76.6367 112.795 76.87 112.795ZM75.575 112.06C75.8083 112.06 75.925 112.177 75.925 112.41C75.925 112.643 75.8083 112.76 75.575 112.76C75.3417 112.76 75.225 112.643 75.225 112.41C75.225 112.177 75.3417 112.06 75.575 112.06ZM74.245 111.57C74.4783 111.57 74.595 111.687 74.595 111.92C74.595 112.153 74.4783 112.27 74.245 112.27C74.0117 112.27 73.895 112.153 73.895 111.92C73.895 111.687 74.0117 111.57 74.245 111.57ZM72.88 111.22C73.1133 111.22 73.23 111.337 73.23 111.57C73.23 111.803 73.1133 111.92 72.88 111.92C72.6467 111.92 72.53 111.803 72.53 111.57C72.53 111.337 72.6467 111.22 72.88 111.22ZM71.48 111.08C71.7133 111.08 71.83 111.197 71.83 111.43C71.83 111.663 71.7133 111.78 71.48 111.78C71.2467 111.78 71.13 111.663 71.13 111.43C71.13 111.197 71.2467 111.08 71.48 111.08ZM70.08 111.115C70.3133 111.115 70.43 111.232 70.43 111.465C70.43 111.698 70.3133 111.815 70.08 111.815C69.8467 111.815 69.73 111.698 69.73 111.465C69.73 111.232 69.8467 111.115 70.08 111.115ZM68.68 111.29C68.9133 111.29 69.03 111.407 69.03 111.64C69.03 111.873 68.9133 111.99 68.68 111.99C68.4467 111.99 68.33 111.873 68.33 111.64C68.33 111.407 68.4467 111.29 68.68 111.29ZM67.21 111.605C67.4433 111.605 67.56 111.722 67.56 111.955C67.56 112.188 67.4433 112.305 67.21 112.305C66.9767 112.305 66.86 112.188 66.86 111.955C66.86 111.722 66.9767 111.605 67.21 111.605ZM65.845 112.2C66.0783 112.2 66.195 112.317 66.195 112.55C66.195 112.783 66.0783 112.9 65.845 112.9C65.6117 112.9 65.495 112.783 65.495 112.55C65.495 112.317 65.6117 112.2 65.845 112.2ZM62.835 118.29C63.0683 118.29 63.185 118.407 63.185 118.64C63.185 118.873 63.0683 118.99 62.835 118.99C62.6017 118.99 62.485 118.873 62.485 118.64C62.485 118.407 62.6017 118.29 62.835 118.29ZM62.765 116.785C62.9983 116.785 63.115 116.902 63.115 117.135C63.115 117.368 62.9983 117.485 62.765 117.485C62.5317 117.485 62.415 117.368 62.415 117.135C62.415 116.902 62.5317 116.785 62.765 116.785ZM63.08 115.42C63.3133 115.42 63.43 115.537 63.43 115.77C63.43 116.003 63.3133 116.12 63.08 116.12C62.8467 116.12 62.73 116.003 62.73 115.77C62.73 115.537 62.8467 115.42 63.08 115.42ZM63.71 114.125C63.9433 114.125 64.06 114.242 64.06 114.475C64.06 114.708 63.9433 114.825 63.71 114.825C63.4767 114.825 63.36 114.708 63.36 114.475C63.36 114.242 63.4767 114.125 63.71 114.125ZM64.655 113.04C64.8883 113.04 65.005 113.157 65.005 113.39C65.005 113.623 64.8883 113.74 64.655 113.74C64.4217 113.74 64.305 113.623 64.305 113.39C64.305 113.157 64.4217 113.04 64.655 113.04ZM63.29 119.655C63.5233 119.655 63.64 119.772 63.64 120.005C63.64 120.238 63.5233 120.355 63.29 120.355C63.0567 120.355 62.94 120.238 62.94 120.005C62.94 119.772 63.0567 119.655 63.29 119.655ZM64.2 120.81C64.4333 120.81 64.55 120.927 64.55 121.16C64.55 121.393 64.4333 121.51 64.2 121.51C63.9667 121.51 63.85 121.393 63.85 121.16C63.85 120.927 63.9667 120.81 64.2 120.81ZM65.39 121.65C65.6233 121.65 65.74 121.767 65.74 122C65.74 122.233 65.6233 122.35 65.39 122.35C65.1567 122.35 65.04 122.233 65.04 122C65.04 121.767 65.1567 121.65 65.39 121.65ZM66.685 122.175C66.9183 122.175 67.035 122.292 67.035 122.525C67.035 122.758 66.9183 122.875 66.685 122.875C66.4517 122.875 66.335 122.758 66.335 122.525C66.335 122.292 66.4517 122.175 66.685 122.175ZM68.12 122.56C68.3533 122.56 68.47 122.677 68.47 122.91C68.47 123.143 68.3533 123.26 68.12 123.26C67.8867 123.26 67.77 123.143 67.77 122.91C67.77 122.677 67.8867 122.56 68.12 122.56ZM69.555 122.875C69.7883 122.875 69.905 122.992 69.905 123.225C69.905 123.458 69.7883 123.575 69.555 123.575C69.3217 123.575 69.205 123.458 69.205 123.225C69.205 122.992 69.3217 122.875 69.555 122.875ZM70.955 123.19C71.1883 123.19 71.305 123.307 71.305 123.54C71.305 123.773 71.1883 123.89 70.955 123.89C70.7217 123.89 70.605 123.773 70.605 123.54C70.605 123.307 70.7217 123.19 70.955 123.19ZM72.39 123.505C72.6233 123.505 72.74 123.622 72.74 123.855C72.74 124.088 72.6233 124.205 72.39 124.205C72.1567 124.205 72.04 124.088 72.04 123.855C72.04 123.622 72.1567 123.505 72.39 123.505ZM73.825 123.82C74.0583 123.82 74.175 123.937 74.175 124.17C74.175 124.403 74.0583 124.52 73.825 124.52C73.5917 124.52 73.475 124.403 73.475 124.17C73.475 123.937 73.5917 123.82 73.825 123.82ZM75.19 124.31C75.4233 124.31 75.54 124.427 75.54 124.66C75.54 124.893 75.4233 125.01 75.19 125.01C74.9567 125.01 74.84 124.893 74.84 124.66C74.84 124.427 74.9567 124.31 75.19 124.31ZM76.485 124.905C76.7183 124.905 76.835 125.022 76.835 125.255C76.835 125.488 76.7183 125.605 76.485 125.605C76.2517 125.605 76.135 125.488 76.135 125.255C76.135 125.022 76.2517 124.905 76.485 124.905ZM77.675 125.71C77.9083 125.71 78.025 125.827 78.025 126.06C78.025 126.293 77.9083 126.41 77.675 126.41C77.4417 126.41 77.325 126.293 77.325 126.06C77.325 125.827 77.4417 125.71 77.675 125.71ZM78.62 126.76C78.8533 126.76 78.97 126.877 78.97 127.11C78.97 127.343 78.8533 127.46 78.62 127.46C78.3867 127.46 78.27 127.343 78.27 127.11C78.27 126.877 78.3867 126.76 78.62 126.76ZM79.18 128.055C79.4133 128.055 79.53 128.172 79.53 128.405C79.53 128.638 79.4133 128.755 79.18 128.755C78.9467 128.755 78.83 128.638 78.83 128.405C78.83 128.172 78.9467 128.055 79.18 128.055ZM79.355 129.42C79.5883 129.42 79.705 129.537 79.705 129.77C79.705 130.003 79.5883 130.12 79.355 130.12C79.1217 130.12 79.005 130.003 79.005 129.77C79.005 129.537 79.1217 129.42 79.355 129.42ZM79.215 130.785C79.4483 130.785 79.565 130.902 79.565 131.135C79.565 131.368 79.4483 131.485 79.215 131.485C78.9817 131.485 78.865 131.368 78.865 131.135C78.865 130.902 78.9817 130.785 79.215 130.785ZM78.795 132.08C79.0283 132.08 79.145 132.197 79.145 132.43C79.145 132.663 79.0283 132.78 78.795 132.78C78.5617 132.78 78.445 132.663 78.445 132.43C78.445 132.197 78.5617 132.08 78.795 132.08ZM78.06 133.2C78.2933 133.2 78.41 133.317 78.41 133.55C78.41 133.783 78.2933 133.9 78.06 133.9C77.8267 133.9 77.71 133.783 77.71 133.55C77.71 133.317 77.8267 133.2 78.06 133.2ZM77.045 134.11C77.2783 134.11 77.395 134.227 77.395 134.46C77.395 134.693 77.2783 134.81 77.045 134.81C76.8117 134.81 76.695 134.693 76.695 134.46C76.695 134.227 76.8117 134.11 77.045 134.11ZM75.785 134.67C76.0183 134.67 76.135 134.787 76.135 135.02C76.135 135.253 76.0183 135.37 75.785 135.37C75.5517 135.37 75.435 135.253 75.435 135.02C75.435 134.787 75.5517 134.67 75.785 134.67ZM74.49 135.055C74.7233 135.055 74.84 135.172 74.84 135.405C74.84 135.638 74.7233 135.755 74.49 135.755C74.2567 135.755 74.14 135.638 74.14 135.405C74.14 135.172 74.2567 135.055 74.49 135.055ZM73.195 135.335C73.4283 135.335 73.545 135.452 73.545 135.685C73.545 135.918 73.4283 136.035 73.195 136.035C72.9617 136.035 72.845 135.918 72.845 135.685C72.845 135.452 72.9617 135.335 73.195 135.335ZM71.865 135.51C72.0983 135.51 72.215 135.627 72.215 135.86C72.215 136.093 72.0983 136.21 71.865 136.21C71.6317 136.21 71.515 136.093 71.515 135.86C71.515 135.627 71.6317 135.51 71.865 135.51ZM70.5 135.44C70.7333 135.44 70.85 135.557 70.85 135.79C70.85 136.023 70.7333 136.14 70.5 136.14C70.2667 136.14 70.15 136.023 70.15 135.79C70.15 135.557 70.2667 135.44 70.5 135.44ZM69.135 135.3C69.3683 135.3 69.485 135.417 69.485 135.65C69.485 135.883 69.3683 136 69.135 136C68.9017 136 68.785 135.883 68.785 135.65C68.785 135.417 68.9017 135.3 69.135 135.3ZM67.805 134.985C68.0383 134.985 68.155 135.102 68.155 135.335C68.155 135.568 68.0383 135.685 67.805 135.685C67.5717 135.685 67.455 135.568 67.455 135.335C67.455 135.102 67.5717 134.985 67.805 134.985ZM66.545 134.6C66.7783 134.6 66.895 134.717 66.895 134.95C66.895 135.183 66.7783 135.3 66.545 135.3C66.3117 135.3 66.195 135.183 66.195 134.95C66.195 134.717 66.3117 134.6 66.545 134.6ZM65.32 134.11C65.5533 134.11 65.67 134.227 65.67 134.46C65.67 134.693 65.5533 134.81 65.32 134.81C65.0867 134.81 64.97 134.693 64.97 134.46C64.97 134.227 65.0867 134.11 65.32 134.11ZM64.165 133.48C64.3983 133.48 64.515 133.597 64.515 133.83C64.515 134.063 64.3983 134.18 64.165 134.18C63.9317 134.18 63.815 134.063 63.815 133.83C63.815 133.597 63.9317 133.48 64.165 133.48ZM63.045 132.71C63.2783 132.71 63.395 132.827 63.395 133.06C63.395 133.293 63.2783 133.41 63.045 133.41C62.8117 133.41 62.695 133.293 62.695 133.06C62.695 132.827 62.8117 132.71 63.045 132.71ZM61.96 131.765C62.1933 131.765 62.31 131.882 62.31 132.115C62.31 132.348 62.1933 132.465 61.96 132.465C61.7267 132.465 61.61 132.348 61.61 132.115C61.61 131.882 61.7267 131.765 61.96 131.765ZM98.1273 125.885C98.3606 125.885 98.4773 126.002 98.4773 126.235C98.4773 126.468 98.3606 126.585 98.1273 126.585C97.894 126.585 97.7773 126.468 97.7773 126.235C97.7773 126.002 97.894 125.885 98.1273 125.885ZM98.1273 124.485C98.3606 124.485 98.4773 124.602 98.4773 124.835C98.4773 125.068 98.3606 125.185 98.1273 125.185C97.894 125.185 97.7773 125.068 97.7773 124.835C97.7773 124.602 97.894 124.485 98.1273 124.485ZM98.1273 123.085C98.3606 123.085 98.4773 123.202 98.4773 123.435C98.4773 123.668 98.3606 123.785 98.1273 123.785C97.894 123.785 97.7773 123.668 97.7773 123.435C97.7773 123.202 97.894 123.085 98.1273 123.085ZM98.1273 121.755C98.3606 121.755 98.4773 121.872 98.4773 122.105C98.4773 122.338 98.3606 122.455 98.1273 122.455C97.894 122.455 97.7773 122.338 97.7773 122.105C97.7773 121.872 97.894 121.755 98.1273 121.755ZM98.1273 120.285C98.3606 120.285 98.4773 120.402 98.4773 120.635C98.4773 120.868 98.3606 120.985 98.1273 120.985C97.894 120.985 97.7773 120.868 97.7773 120.635C97.7773 120.402 97.894 120.285 98.1273 120.285ZM98.1273 119.025C98.3606 119.025 98.4773 119.142 98.4773 119.375C98.4773 119.608 98.3606 119.725 98.1273 119.725C97.894 119.725 97.7773 119.608 97.7773 119.375C97.7773 119.142 97.894 119.025 98.1273 119.025ZM98.1273 117.8C98.3606 117.8 98.4773 117.917 98.4773 118.15C98.4773 118.383 98.3606 118.5 98.1273 118.5C97.894 118.5 97.7773 118.383 97.7773 118.15C97.7773 117.917 97.894 117.8 98.1273 117.8ZM98.8273 135.3C99.0606 135.3 99.1773 135.417 99.1773 135.65C99.1773 135.883 99.0606 136 98.8273 136C98.594 136 98.4773 135.883 98.4773 135.65C98.4773 135.417 98.594 135.3 98.8273 135.3ZM98.1273 131.345C98.3606 131.345 98.4773 131.462 98.4773 131.695C98.4773 131.928 98.3606 132.045 98.1273 132.045C97.894 132.045 97.7773 131.928 97.7773 131.695C97.7773 131.462 97.894 131.345 98.1273 131.345ZM98.1273 130.05C98.3606 130.05 98.4773 130.167 98.4773 130.4C98.4773 130.633 98.3606 130.75 98.1273 130.75C97.894 130.75 97.7773 130.633 97.7773 130.4C97.7773 130.167 97.894 130.05 98.1273 130.05ZM98.1273 128.72C98.3606 128.72 98.4773 128.837 98.4773 129.07C98.4773 129.303 98.3606 129.42 98.1273 129.42C97.894 129.42 97.7773 129.303 97.7773 129.07C97.7773 128.837 97.894 128.72 98.1273 128.72ZM98.1273 127.32C98.3606 127.32 98.4773 127.437 98.4773 127.67C98.4773 127.903 98.3606 128.02 98.1273 128.02C97.894 128.02 97.7773 127.903 97.7773 127.67C97.7773 127.437 97.894 127.32 98.1273 127.32ZM98.2323 132.745C98.4656 132.745 98.5823 132.862 98.5823 133.095C98.5823 133.328 98.4656 133.445 98.2323 133.445C97.999 133.445 97.8823 133.328 97.8823 133.095C97.8823 132.862 97.999 132.745 98.2323 132.745ZM98.4423 134.075C98.6756 134.075 98.7923 134.192 98.7923 134.425C98.7923 134.658 98.6756 134.775 98.4423 134.775C98.209 134.775 98.0923 134.658 98.0923 134.425C98.0923 134.192 98.209 134.075 98.4423 134.075ZM84.5823 125.885C84.8156 125.885 84.9323 126.002 84.9323 126.235C84.9323 126.468 84.8156 126.585 84.5823 126.585C84.349 126.585 84.2323 126.468 84.2323 126.235C84.2323 126.002 84.349 125.885 84.5823 125.885ZM84.5823 124.485C84.8156 124.485 84.9323 124.602 84.9323 124.835C84.9323 125.068 84.8156 125.185 84.5823 125.185C84.349 125.185 84.2323 125.068 84.2323 124.835C84.2323 124.602 84.349 124.485 84.5823 124.485ZM84.5823 123.085C84.8156 123.085 84.9323 123.202 84.9323 123.435C84.9323 123.668 84.8156 123.785 84.5823 123.785C84.349 123.785 84.2323 123.668 84.2323 123.435C84.2323 123.202 84.349 123.085 84.5823 123.085ZM84.5823 121.755C84.8156 121.755 84.9323 121.872 84.9323 122.105C84.9323 122.338 84.8156 122.455 84.5823 122.455C84.349 122.455 84.2323 122.338 84.2323 122.105C84.2323 121.872 84.349 121.755 84.5823 121.755ZM84.5823 120.285C84.8156 120.285 84.9323 120.402 84.9323 120.635C84.9323 120.868 84.8156 120.985 84.5823 120.985C84.349 120.985 84.2323 120.868 84.2323 120.635C84.2323 120.402 84.349 120.285 84.5823 120.285ZM84.5823 119.025C84.8156 119.025 84.9323 119.142 84.9323 119.375C84.9323 119.608 84.8156 119.725 84.5823 119.725C84.349 119.725 84.2323 119.608 84.2323 119.375C84.2323 119.142 84.349 119.025 84.5823 119.025ZM84.5823 117.8C84.8156 117.8 84.9323 117.917 84.9323 118.15C84.9323 118.383 84.8156 118.5 84.5823 118.5C84.349 118.5 84.2323 118.383 84.2323 118.15C84.2323 117.917 84.349 117.8 84.5823 117.8ZM90.9173 135.265C91.1506 135.265 91.2673 135.382 91.2673 135.615C91.2673 135.848 91.1506 135.965 90.9173 135.965C90.684 135.965 90.5673 135.848 90.5673 135.615C90.5673 135.382 90.684 135.265 90.9173 135.265ZM89.3423 135.405C89.5756 135.405 89.6923 135.522 89.6923 135.755C89.6923 135.988 89.5756 136.105 89.3423 136.105C89.109 136.105 88.9923 135.988 88.9923 135.755C88.9923 135.522 89.109 135.405 89.3423 135.405ZM87.8373 135.09C88.0706 135.09 88.1873 135.207 88.1873 135.44C88.1873 135.673 88.0706 135.79 87.8373 135.79C87.604 135.79 87.4873 135.673 87.4873 135.44C87.4873 135.207 87.604 135.09 87.8373 135.09ZM86.4723 134.285C86.7056 134.285 86.8223 134.402 86.8223 134.635C86.8223 134.868 86.7056 134.985 86.4723 134.985C86.239 134.985 86.1223 134.868 86.1223 134.635C86.1223 134.402 86.239 134.285 86.4723 134.285ZM85.7023 133.305C85.9356 133.305 86.0523 133.422 86.0523 133.655C86.0523 133.888 85.9356 134.005 85.7023 134.005C85.469 134.005 85.3523 133.888 85.3523 133.655C85.3523 133.422 85.469 133.305 85.7023 133.305ZM84.9323 130.89C85.1656 130.89 85.2823 131.007 85.2823 131.24C85.2823 131.473 85.1656 131.59 84.9323 131.59C84.699 131.59 84.5823 131.473 84.5823 131.24C84.5823 131.007 84.699 130.89 84.9323 130.89ZM84.7573 129.595C84.9906 129.595 85.1073 129.712 85.1073 129.945C85.1073 130.178 84.9906 130.295 84.7573 130.295C84.524 130.295 84.4073 130.178 84.4073 129.945C84.4073 129.712 84.524 129.595 84.7573 129.595ZM85.2123 132.115C85.4456 132.115 85.5623 132.232 85.5623 132.465C85.5623 132.698 85.4456 132.815 85.2123 132.815C84.979 132.815 84.8623 132.698 84.8623 132.465C84.8623 132.232 84.979 132.115 85.2123 132.115ZM84.5823 128.265C84.8156 128.265 84.9323 128.382 84.9323 128.615C84.9323 128.848 84.8156 128.965 84.5823 128.965C84.349 128.965 84.2323 128.848 84.2323 128.615C84.2323 128.382 84.349 128.265 84.5823 128.265ZM92.4223 134.74C92.6556 134.74 92.7723 134.857 92.7723 135.09C92.7723 135.323 92.6556 135.44 92.4223 135.44C92.189 135.44 92.0723 135.323 92.0723 135.09C92.0723 134.857 92.189 134.74 92.4223 134.74ZM84.5823 127.18C84.8156 127.18 84.9323 127.297 84.9323 127.53C84.9323 127.763 84.8156 127.88 84.5823 127.88C84.349 127.88 84.2323 127.763 84.2323 127.53C84.2323 127.297 84.349 127.18 84.5823 127.18ZM93.7873 134.11C94.0206 134.11 94.1373 134.227 94.1373 134.46C94.1373 134.693 94.0206 134.81 93.7873 134.81C93.554 134.81 93.4373 134.693 93.4373 134.46C93.4373 134.227 93.554 134.11 93.7873 134.11ZM95.0123 133.27C95.2456 133.27 95.3623 133.387 95.3623 133.62C95.3623 133.853 95.2456 133.97 95.0123 133.97C94.779 133.97 94.6623 133.853 94.6623 133.62C94.6623 133.387 94.779 133.27 95.0123 133.27ZM96.1323 132.15C96.3656 132.15 96.4823 132.267 96.4823 132.5C96.4823 132.733 96.3656 132.85 96.1323 132.85C95.899 132.85 95.7823 132.733 95.7823 132.5C95.7823 132.267 95.899 132.15 96.1323 132.15ZM97.0073 130.96C97.2406 130.96 97.3573 131.077 97.3573 131.31C97.3573 131.543 97.2406 131.66 97.0073 131.66C96.774 131.66 96.6573 131.543 96.6573 131.31C96.6573 131.077 96.774 130.96 97.0073 130.96ZM109.785 135.65C109.552 135.65 109.435 135.533 109.435 135.3C109.435 135.067 109.552 134.95 109.785 134.95C110.018 134.95 110.135 135.067 110.135 135.3C110.135 135.533 110.018 135.65 109.785 135.65ZM105.2 127.565C104.967 127.565 104.85 127.448 104.85 127.215C104.85 126.982 104.967 126.865 105.2 126.865C105.433 126.865 105.55 126.982 105.55 127.215C105.55 127.448 105.433 127.565 105.2 127.565ZM105.2 128.965C104.967 128.965 104.85 128.848 104.85 128.615C104.85 128.382 104.967 128.265 105.2 128.265C105.433 128.265 105.55 128.382 105.55 128.615C105.55 128.848 105.433 128.965 105.2 128.965ZM105.2 130.365C104.967 130.365 104.85 130.248 104.85 130.015C104.85 129.782 104.967 129.665 105.2 129.665C105.433 129.665 105.55 129.782 105.55 130.015C105.55 130.248 105.433 130.365 105.2 130.365ZM105.2 131.765C104.967 131.765 104.85 131.648 104.85 131.415C104.85 131.182 104.967 131.065 105.2 131.065C105.433 131.065 105.55 131.182 105.55 131.415C105.55 131.648 105.433 131.765 105.2 131.765ZM105.2 133.165C104.967 133.165 104.85 133.048 104.85 132.815C104.85 132.582 104.967 132.465 105.2 132.465C105.433 132.465 105.55 132.582 105.55 132.815C105.55 133.048 105.433 133.165 105.2 133.165ZM105.41 134.495C105.177 134.495 105.06 134.378 105.06 134.145C105.06 133.912 105.177 133.795 105.41 133.795C105.643 133.795 105.76 133.912 105.76 134.145C105.76 134.378 105.643 134.495 105.41 134.495ZM106.18 135.51C105.947 135.51 105.83 135.393 105.83 135.16C105.83 134.927 105.947 134.81 106.18 134.81C106.413 134.81 106.53 134.927 106.53 135.16C106.53 135.393 106.413 135.51 106.18 135.51ZM105.2 116.435C104.967 116.435 104.85 116.318 104.85 116.085C104.85 115.852 104.967 115.735 105.2 115.735C105.433 115.735 105.55 115.852 105.55 116.085C105.55 116.318 105.433 116.435 105.2 116.435ZM105.2 117.8C104.967 117.8 104.85 117.683 104.85 117.45C104.85 117.217 104.967 117.1 105.2 117.1C105.433 117.1 105.55 117.217 105.55 117.45C105.55 117.683 105.433 117.8 105.2 117.8ZM105.2 119.305C104.967 119.305 104.85 119.188 104.85 118.955C104.85 118.722 104.967 118.605 105.2 118.605C105.433 118.605 105.55 118.722 105.55 118.955C105.55 119.188 105.433 119.305 105.2 119.305ZM105.2 122.105C104.967 122.105 104.85 121.988 104.85 121.755C104.85 121.522 104.967 121.405 105.2 121.405C105.433 121.405 105.55 121.522 105.55 121.755C105.55 121.988 105.433 122.105 105.2 122.105ZM105.2 123.4C104.967 123.4 104.85 123.283 104.85 123.05C104.85 122.817 104.967 122.7 105.2 122.7C105.433 122.7 105.55 122.817 105.55 123.05C105.55 123.283 105.433 123.4 105.2 123.4ZM105.2 124.8C104.967 124.8 104.85 124.683 104.85 124.45C104.85 124.217 104.967 124.1 105.2 124.1C105.433 124.1 105.55 124.217 105.55 124.45C105.55 124.683 105.433 124.8 105.2 124.8ZM105.2 126.2C104.967 126.2 104.85 126.083 104.85 125.85C104.85 125.617 104.967 125.5 105.2 125.5C105.433 125.5 105.55 125.617 105.55 125.85C105.55 126.083 105.433 126.2 105.2 126.2ZM105.2 111.15C104.967 111.15 104.85 111.033 104.85 110.8C104.85 110.567 104.967 110.45 105.2 110.45C105.433 110.45 105.55 110.567 105.55 110.8C105.55 111.033 105.433 111.15 105.2 111.15ZM105.2 112.445C104.967 112.445 104.85 112.328 104.85 112.095C104.85 111.862 104.967 111.745 105.2 111.745C105.433 111.745 105.55 111.862 105.55 112.095C105.55 112.328 105.433 112.445 105.2 112.445ZM105.2 113.775C104.967 113.775 104.85 113.658 104.85 113.425C104.85 113.192 104.967 113.075 105.2 113.075C105.433 113.075 105.55 113.192 105.55 113.425C105.55 113.658 105.433 113.775 105.2 113.775ZM105.2 115.035C104.967 115.035 104.85 114.918 104.85 114.685C104.85 114.452 104.967 114.335 105.2 114.335C105.433 114.335 105.55 114.452 105.55 114.685C105.55 114.918 105.433 115.035 105.2 115.035ZM105.2 120.705C104.967 120.705 104.85 120.588 104.85 120.355C104.85 120.122 104.967 120.005 105.2 120.005C105.433 120.005 105.55 120.122 105.55 120.355C105.55 120.588 105.433 120.705 105.2 120.705ZM107.3 136.035C107.067 136.035 106.95 135.918 106.95 135.685C106.95 135.452 107.067 135.335 107.3 135.335C107.533 135.335 107.65 135.452 107.65 135.685C107.65 135.918 107.533 136.035 107.3 136.035ZM108.595 135.965C108.362 135.965 108.245 135.848 108.245 135.615C108.245 135.382 108.362 135.265 108.595 135.265C108.828 135.265 108.945 135.382 108.945 135.615C108.945 135.848 108.828 135.965 108.595 135.965ZM113.297 127.565C113.063 127.565 112.947 127.448 112.947 127.215C112.947 126.982 113.063 126.865 113.297 126.865C113.53 126.865 113.647 126.982 113.647 127.215C113.647 127.448 113.53 127.565 113.297 127.565ZM113.297 128.965C113.063 128.965 112.947 128.848 112.947 128.615C112.947 128.382 113.063 128.265 113.297 128.265C113.53 128.265 113.647 128.382 113.647 128.615C113.647 128.848 113.53 128.965 113.297 128.965ZM113.297 130.365C113.063 130.365 112.947 130.248 112.947 130.015C112.947 129.782 113.063 129.665 113.297 129.665C113.53 129.665 113.647 129.782 113.647 130.015C113.647 130.248 113.53 130.365 113.297 130.365ZM113.297 131.765C113.063 131.765 112.947 131.648 112.947 131.415C112.947 131.182 113.063 131.065 113.297 131.065C113.53 131.065 113.647 131.182 113.647 131.415C113.647 131.648 113.53 131.765 113.297 131.765ZM113.297 133.165C113.063 133.165 112.947 133.048 112.947 132.815C112.947 132.582 113.063 132.465 113.297 132.465C113.53 132.465 113.647 132.582 113.647 132.815C113.647 133.048 113.53 133.165 113.297 133.165ZM113.297 134.565C113.063 134.565 112.947 134.448 112.947 134.215C112.947 133.982 113.063 133.865 113.297 133.865C113.53 133.865 113.647 133.982 113.647 134.215C113.647 134.448 113.53 134.565 113.297 134.565ZM113.297 135.965C113.063 135.965 112.947 135.848 112.947 135.615C112.947 135.382 113.063 135.265 113.297 135.265C113.53 135.265 113.647 135.382 113.647 135.615C113.647 135.848 113.53 135.965 113.297 135.965ZM113.297 116.435C113.063 116.435 112.947 116.318 112.947 116.085C112.947 115.852 113.063 115.735 113.297 115.735C113.53 115.735 113.647 115.852 113.647 116.085C113.647 116.318 113.53 116.435 113.297 116.435ZM113.297 117.8C113.063 117.8 112.947 117.683 112.947 117.45C112.947 117.217 113.063 117.1 113.297 117.1C113.53 117.1 113.647 117.217 113.647 117.45C113.647 117.683 113.53 117.8 113.297 117.8ZM113.297 119.305C113.063 119.305 112.947 119.188 112.947 118.955C112.947 118.722 113.063 118.605 113.297 118.605C113.53 118.605 113.647 118.722 113.647 118.955C113.647 119.188 113.53 119.305 113.297 119.305ZM113.297 122.105C113.063 122.105 112.947 121.988 112.947 121.755C112.947 121.522 113.063 121.405 113.297 121.405C113.53 121.405 113.647 121.522 113.647 121.755C113.647 121.988 113.53 122.105 113.297 122.105ZM113.297 123.4C113.063 123.4 112.947 123.283 112.947 123.05C112.947 122.817 113.063 122.7 113.297 122.7C113.53 122.7 113.647 122.817 113.647 123.05C113.647 123.283 113.53 123.4 113.297 123.4ZM113.297 124.8C113.063 124.8 112.947 124.683 112.947 124.45C112.947 124.217 113.063 124.1 113.297 124.1C113.53 124.1 113.647 124.217 113.647 124.45C113.647 124.683 113.53 124.8 113.297 124.8ZM113.297 126.2C113.063 126.2 112.947 126.083 112.947 125.85C112.947 125.617 113.063 125.5 113.297 125.5C113.53 125.5 113.647 125.617 113.647 125.85C113.647 126.083 113.53 126.2 113.297 126.2ZM113.297 111.15C113.063 111.15 112.947 111.033 112.947 110.8C112.947 110.567 113.063 110.45 113.297 110.45C113.53 110.45 113.647 110.567 113.647 110.8C113.647 111.033 113.53 111.15 113.297 111.15ZM113.297 112.445C113.063 112.445 112.947 112.328 112.947 112.095C112.947 111.862 113.063 111.745 113.297 111.745C113.53 111.745 113.647 111.862 113.647 112.095C113.647 112.328 113.53 112.445 113.297 112.445ZM113.297 113.775C113.063 113.775 112.947 113.658 112.947 113.425C112.947 113.192 113.063 113.075 113.297 113.075C113.53 113.075 113.647 113.192 113.647 113.425C113.647 113.658 113.53 113.775 113.297 113.775ZM113.297 115.035C113.063 115.035 112.947 114.918 112.947 114.685C112.947 114.452 113.063 114.335 113.297 114.335C113.53 114.335 113.647 114.452 113.647 114.685C113.647 114.918 113.53 115.035 113.297 115.035ZM113.297 120.705C113.063 120.705 112.947 120.588 112.947 120.355C112.947 120.122 113.063 120.005 113.297 120.005C113.53 120.005 113.647 120.122 113.647 120.355C113.647 120.588 113.53 120.705 113.297 120.705ZM126.107 118.465C125.873 118.465 125.757 118.348 125.757 118.115C125.757 117.882 125.873 117.765 126.107 117.765C126.34 117.765 126.457 117.882 126.457 118.115C126.457 118.348 126.34 118.465 126.107 118.465ZM125.057 119.515C124.823 119.515 124.707 119.398 124.707 119.165C124.707 118.932 124.823 118.815 125.057 118.815C125.29 118.815 125.407 118.932 125.407 119.165C125.407 119.398 125.29 119.515 125.057 119.515ZM119.947 124.31C119.713 124.31 119.597 124.193 119.597 123.96C119.597 123.727 119.713 123.61 119.947 123.61C120.18 123.61 120.297 123.727 120.297 123.96C120.297 124.193 120.18 124.31 119.947 124.31ZM120.227 127.565C119.993 127.565 119.877 127.448 119.877 127.215C119.877 126.982 119.993 126.865 120.227 126.865C120.46 126.865 120.577 126.982 120.577 127.215C120.577 127.448 120.46 127.565 120.227 127.565ZM117.742 126.375C117.508 126.375 117.392 126.258 117.392 126.025C117.392 125.792 117.508 125.675 117.742 125.675C117.975 125.675 118.092 125.792 118.092 126.025C118.092 126.258 117.975 126.375 117.742 126.375ZM118.757 125.36C118.523 125.36 118.407 125.243 118.407 125.01C118.407 124.777 118.523 124.66 118.757 124.66C118.99 124.66 119.107 124.777 119.107 125.01C119.107 125.243 118.99 125.36 118.757 125.36ZM116.657 127.39C116.423 127.39 116.307 127.273 116.307 127.04C116.307 126.807 116.423 126.69 116.657 126.69C116.89 126.69 117.007 126.807 117.007 127.04C117.007 127.273 116.89 127.39 116.657 127.39ZM119.492 126.55C119.258 126.55 119.142 126.433 119.142 126.2C119.142 125.967 119.258 125.85 119.492 125.85C119.725 125.85 119.842 125.967 119.842 126.2C119.842 126.433 119.725 126.55 119.492 126.55ZM115.537 128.335C115.303 128.335 115.187 128.218 115.187 127.985C115.187 127.752 115.303 127.635 115.537 127.635C115.77 127.635 115.887 127.752 115.887 127.985C115.887 128.218 115.77 128.335 115.537 128.335ZM123.202 131.555C122.968 131.555 122.852 131.438 122.852 131.205C122.852 130.972 122.968 130.855 123.202 130.855C123.435 130.855 123.552 130.972 123.552 131.205C123.552 131.438 123.435 131.555 123.202 131.555ZM114.452 129.35C114.218 129.35 114.102 129.233 114.102 129C114.102 128.767 114.218 128.65 114.452 128.65C114.685 128.65 114.802 128.767 114.802 129C114.802 129.233 114.685 129.35 114.452 129.35ZM124.007 132.71C123.773 132.71 123.657 132.593 123.657 132.36C123.657 132.127 123.773 132.01 124.007 132.01C124.24 132.01 124.357 132.127 124.357 132.36C124.357 132.593 124.24 132.71 124.007 132.71ZM124.777 133.795C124.543 133.795 124.427 133.678 124.427 133.445C124.427 133.212 124.543 133.095 124.777 133.095C125.01 133.095 125.127 133.212 125.127 133.445C125.127 133.678 125.01 133.795 124.777 133.795ZM125.512 134.775C125.278 134.775 125.162 134.658 125.162 134.425C125.162 134.192 125.278 134.075 125.512 134.075C125.745 134.075 125.862 134.192 125.862 134.425C125.862 134.658 125.745 134.775 125.512 134.775ZM126.387 136C126.153 136 126.037 135.883 126.037 135.65C126.037 135.417 126.153 135.3 126.387 135.3C126.62 135.3 126.737 135.417 126.737 135.65C126.737 135.883 126.62 136 126.387 136ZM120.997 128.58C120.763 128.58 120.647 128.463 120.647 128.23C120.647 127.997 120.763 127.88 120.997 127.88C121.23 127.88 121.347 127.997 121.347 128.23C121.347 128.463 121.23 128.58 120.997 128.58ZM121.767 129.595C121.533 129.595 121.417 129.478 121.417 129.245C121.417 129.012 121.533 128.895 121.767 128.895C122 128.895 122.117 129.012 122.117 129.245C122.117 129.478 122 129.595 121.767 129.595ZM122.432 130.575C122.198 130.575 122.082 130.458 122.082 130.225C122.082 129.992 122.198 129.875 122.432 129.875C122.665 129.875 122.782 129.992 122.782 130.225C122.782 130.458 122.665 130.575 122.432 130.575ZM121.067 123.33C120.833 123.33 120.717 123.213 120.717 122.98C120.717 122.747 120.833 122.63 121.067 122.63C121.3 122.63 121.417 122.747 121.417 122.98C121.417 123.213 121.3 123.33 121.067 123.33ZM122.082 122.315C121.848 122.315 121.732 122.198 121.732 121.965C121.732 121.732 121.848 121.615 122.082 121.615C122.315 121.615 122.432 121.732 122.432 121.965C122.432 122.198 122.315 122.315 122.082 122.315ZM123.027 121.405C122.793 121.405 122.677 121.288 122.677 121.055C122.677 120.822 122.793 120.705 123.027 120.705C123.26 120.705 123.377 120.822 123.377 121.055C123.377 121.288 123.26 121.405 123.027 121.405ZM124.042 120.495C123.808 120.495 123.692 120.378 123.692 120.145C123.692 119.912 123.808 119.795 124.042 119.795C124.275 119.795 124.392 119.912 124.392 120.145C124.392 120.378 124.275 120.495 124.042 120.495ZM134.573 118.64C134.34 118.64 134.223 118.523 134.223 118.29C134.223 118.057 134.34 117.94 134.573 117.94C134.807 117.94 134.923 118.057 134.923 118.29C134.923 118.523 134.807 118.64 134.573 118.64ZM135.973 118.395C135.74 118.395 135.623 118.278 135.623 118.045C135.623 117.812 135.74 117.695 135.973 117.695C136.207 117.695 136.323 117.812 136.323 118.045C136.323 118.278 136.207 118.395 135.973 118.395ZM137.408 118.395C137.175 118.395 137.058 118.278 137.058 118.045C137.058 117.812 137.175 117.695 137.408 117.695C137.642 117.695 137.758 117.812 137.758 118.045C137.758 118.278 137.642 118.395 137.408 118.395ZM138.773 118.675C138.54 118.675 138.423 118.558 138.423 118.325C138.423 118.092 138.54 117.975 138.773 117.975C139.007 117.975 139.123 118.092 139.123 118.325C139.123 118.558 139.007 118.675 138.773 118.675ZM132.018 119.69C131.785 119.69 131.668 119.573 131.668 119.34C131.668 119.107 131.785 118.99 132.018 118.99C132.252 118.99 132.368 119.107 132.368 119.34C132.368 119.573 132.252 119.69 132.018 119.69ZM140.033 119.27C139.8 119.27 139.683 119.153 139.683 118.92C139.683 118.687 139.8 118.57 140.033 118.57C140.267 118.57 140.383 118.687 140.383 118.92C140.383 119.153 140.267 119.27 140.033 119.27ZM141.153 120.145C140.92 120.145 140.803 120.028 140.803 119.795C140.803 119.562 140.92 119.445 141.153 119.445C141.387 119.445 141.503 119.562 141.503 119.795C141.503 120.028 141.387 120.145 141.153 120.145ZM141.993 121.3C141.76 121.3 141.643 121.183 141.643 120.95C141.643 120.717 141.76 120.6 141.993 120.6C142.227 120.6 142.343 120.717 142.343 120.95C142.343 121.183 142.227 121.3 141.993 121.3ZM142.553 122.595C142.32 122.595 142.203 122.478 142.203 122.245C142.203 122.012 142.32 121.895 142.553 121.895C142.787 121.895 142.903 122.012 142.903 122.245C142.903 122.478 142.787 122.595 142.553 122.595ZM142.798 123.995C142.565 123.995 142.448 123.878 142.448 123.645C142.448 123.412 142.565 123.295 142.798 123.295C143.032 123.295 143.148 123.412 143.148 123.645C143.148 123.878 143.032 123.995 142.798 123.995ZM142.868 125.395C142.635 125.395 142.518 125.278 142.518 125.045C142.518 124.812 142.635 124.695 142.868 124.695C143.102 124.695 143.218 124.812 143.218 125.045C143.218 125.278 143.102 125.395 142.868 125.395ZM133.033 126.795C132.8 126.795 132.683 126.678 132.683 126.445C132.683 126.212 132.8 126.095 133.033 126.095C133.267 126.095 133.383 126.212 133.383 126.445C133.383 126.678 133.267 126.795 133.033 126.795ZM134.433 126.41C134.2 126.41 134.083 126.293 134.083 126.06C134.083 125.827 134.2 125.71 134.433 125.71C134.667 125.71 134.783 125.827 134.783 126.06C134.783 126.293 134.667 126.41 134.433 126.41ZM140.208 126.9C139.975 126.9 139.858 126.783 139.858 126.55C139.858 126.317 139.975 126.2 140.208 126.2C140.442 126.2 140.558 126.317 140.558 126.55C140.558 126.783 140.442 126.9 140.208 126.9ZM141.573 127.425C141.34 127.425 141.223 127.308 141.223 127.075C141.223 126.842 141.34 126.725 141.573 126.725C141.807 126.725 141.923 126.842 141.923 127.075C141.923 127.308 141.807 127.425 141.573 127.425ZM142.833 126.865C142.6 126.865 142.483 126.748 142.483 126.515C142.483 126.282 142.6 126.165 142.833 126.165C143.067 126.165 143.183 126.282 143.183 126.515C143.183 126.748 143.067 126.865 142.833 126.865ZM130.548 128.3C130.315 128.3 130.198 128.183 130.198 127.95C130.198 127.717 130.315 127.6 130.548 127.6C130.782 127.6 130.898 127.717 130.898 127.95C130.898 128.183 130.782 128.3 130.548 128.3ZM142.833 128.3C142.6 128.3 142.483 128.183 142.483 127.95C142.483 127.717 142.6 127.6 142.833 127.6C143.067 127.6 143.183 127.717 143.183 127.95C143.183 128.183 143.067 128.3 142.833 128.3ZM129.673 129.7C129.44 129.7 129.323 129.583 129.323 129.35C129.323 129.117 129.44 129 129.673 129C129.907 129 130.023 129.117 130.023 129.35C130.023 129.583 129.907 129.7 129.673 129.7ZM142.833 129.7C142.6 129.7 142.483 129.583 142.483 129.35C142.483 129.117 142.6 129 142.833 129C143.067 129 143.183 129.117 143.183 129.35C143.183 129.583 143.067 129.7 142.833 129.7ZM142.833 131.1C142.6 131.1 142.483 130.983 142.483 130.75C142.483 130.517 142.6 130.4 142.833 130.4C143.067 130.4 143.183 130.517 143.183 130.75C143.183 130.983 143.067 131.1 142.833 131.1ZM129.673 132.5C129.44 132.5 129.323 132.383 129.323 132.15C129.323 131.917 129.44 131.8 129.673 131.8C129.907 131.8 130.023 131.917 130.023 132.15C130.023 132.383 129.907 132.5 129.673 132.5ZM142.728 132.5C142.495 132.5 142.378 132.383 142.378 132.15C142.378 131.917 142.495 131.8 142.728 131.8C142.962 131.8 143.078 131.917 143.078 132.15C143.078 132.383 142.962 132.5 142.728 132.5ZM130.268 133.83C130.035 133.83 129.918 133.713 129.918 133.48C129.918 133.247 130.035 133.13 130.268 133.13C130.502 133.13 130.618 133.247 130.618 133.48C130.618 133.713 130.502 133.83 130.268 133.83ZM141.608 133.445C141.375 133.445 141.258 133.328 141.258 133.095C141.258 132.862 141.375 132.745 141.608 132.745C141.842 132.745 141.958 132.862 141.958 133.095C141.958 133.328 141.842 133.445 141.608 133.445ZM143.008 133.9C142.775 133.9 142.658 133.783 142.658 133.55C142.658 133.317 142.775 133.2 143.008 133.2C143.242 133.2 143.358 133.317 143.358 133.55C143.358 133.783 143.242 133.9 143.008 133.9ZM131.213 134.88C130.98 134.88 130.863 134.763 130.863 134.53C130.863 134.297 130.98 134.18 131.213 134.18C131.447 134.18 131.563 134.297 131.563 134.53C131.563 134.763 131.447 134.88 131.213 134.88ZM139.333 135.16C139.1 135.16 138.983 135.043 138.983 134.81C138.983 134.577 139.1 134.46 139.333 134.46C139.567 134.46 139.683 134.577 139.683 134.81C139.683 135.043 139.567 135.16 139.333 135.16ZM140.488 134.46C140.255 134.46 140.138 134.343 140.138 134.11C140.138 133.877 140.255 133.76 140.488 133.76C140.722 133.76 140.838 133.877 140.838 134.11C140.838 134.343 140.722 134.46 140.488 134.46ZM143.463 135.125C143.23 135.125 143.113 135.008 143.113 134.775C143.113 134.542 143.23 134.425 143.463 134.425C143.697 134.425 143.813 134.542 143.813 134.775C143.813 135.008 143.697 135.125 143.463 135.125ZM133.278 119.095C133.045 119.095 132.928 118.978 132.928 118.745C132.928 118.512 133.045 118.395 133.278 118.395C133.512 118.395 133.628 118.512 133.628 118.745C133.628 118.978 133.512 119.095 133.278 119.095ZM130.828 120.425C130.595 120.425 130.478 120.308 130.478 120.075C130.478 119.842 130.595 119.725 130.828 119.725C131.062 119.725 131.178 119.842 131.178 120.075C131.178 120.308 131.062 120.425 130.828 120.425ZM144.338 136C144.105 136 143.988 135.883 143.988 135.65C143.988 135.417 144.105 135.3 144.338 135.3C144.572 135.3 144.688 135.417 144.688 135.65C144.688 135.883 144.572 136 144.338 136ZM129.393 131.1C129.16 131.1 129.043 130.983 129.043 130.75C129.043 130.517 129.16 130.4 129.393 130.4C129.627 130.4 129.743 130.517 129.743 130.75C129.743 130.983 129.627 131.1 129.393 131.1ZM138.738 126.48C138.505 126.48 138.388 126.363 138.388 126.13C138.388 125.897 138.505 125.78 138.738 125.78C138.972 125.78 139.088 125.897 139.088 126.13C139.088 126.363 138.972 126.48 138.738 126.48ZM137.373 126.34C137.14 126.34 137.023 126.223 137.023 125.99C137.023 125.757 137.14 125.64 137.373 125.64C137.607 125.64 137.723 125.757 137.723 125.99C137.723 126.223 137.607 126.34 137.373 126.34ZM135.868 126.305C135.635 126.305 135.518 126.188 135.518 125.955C135.518 125.722 135.635 125.605 135.868 125.605C136.102 125.605 136.218 125.722 136.218 125.955C136.218 126.188 136.102 126.305 135.868 126.305ZM131.703 127.425C131.47 127.425 131.353 127.308 131.353 127.075C131.353 126.842 131.47 126.725 131.703 126.725C131.937 126.725 132.053 126.842 132.053 127.075C132.053 127.308 131.937 127.425 131.703 127.425ZM132.403 135.685C132.17 135.685 132.053 135.568 132.053 135.335C132.053 135.102 132.17 134.985 132.403 134.985C132.637 134.985 132.753 135.102 132.753 135.335C132.753 135.568 132.637 135.685 132.403 135.685ZM133.698 136.105C133.465 136.105 133.348 135.988 133.348 135.755C133.348 135.522 133.465 135.405 133.698 135.405C133.932 135.405 134.048 135.522 134.048 135.755C134.048 135.988 133.932 136.105 133.698 136.105ZM135.098 136.21C134.865 136.21 134.748 136.093 134.748 135.86C134.748 135.627 134.865 135.51 135.098 135.51C135.332 135.51 135.448 135.627 135.448 135.86C135.448 136.093 135.332 136.21 135.098 136.21ZM136.673 136.07C136.44 136.07 136.323 135.953 136.323 135.72C136.323 135.487 136.44 135.37 136.673 135.37C136.907 135.37 137.023 135.487 137.023 135.72C137.023 135.953 136.907 136.07 136.673 136.07ZM138.073 135.72C137.84 135.72 137.723 135.603 137.723 135.37C137.723 135.137 137.84 135.02 138.073 135.02C138.307 135.02 138.423 135.137 138.423 135.37C138.423 135.603 138.307 135.72 138.073 135.72Z" fill="black"/>
<path d="M84.5254 59.9746C84.5254 60.209 84.4844 60.4023 84.4023 60.5547C84.332 60.6953 84.25 60.8594 84.1562 61.0469C84.1328 61.0352 84.1035 61.0293 84.0684 61.0293C83.998 61.0293 83.9336 61.0469 83.875 61.082C83.8164 61.1172 83.7578 61.1465 83.6992 61.1699C83.3594 61.5449 83.0078 61.9082 82.6445 62.2598C82.293 62.6113 81.9004 62.9219 81.4668 63.1914C81.3496 63.2617 81.2324 63.332 81.1152 63.4023C80.998 63.4609 80.875 63.5195 80.7461 63.5781C80.6992 63.6016 80.6523 63.625 80.6055 63.6484C80.5703 63.6602 80.5352 63.6777 80.5 63.7012C80.418 63.748 80.3301 63.8242 80.2363 63.9297C80.1543 64.0352 80.0547 64.1406 79.9375 64.2461C79.832 64.3633 79.7148 64.457 79.5859 64.5273C79.457 64.6094 79.3164 64.6445 79.1641 64.6328C79.0703 64.6914 78.9883 64.7676 78.918 64.8613C78.8477 64.9551 78.7656 65.0488 78.6719 65.1426C78.168 65.3184 77.7051 65.5469 77.2832 65.8281C76.873 66.1211 76.4453 66.4023 76 66.6719C75.7305 66.8477 75.4609 66.9883 75.1914 67.0938C75.1328 67.1172 75.0625 67.1348 74.9805 67.1465C74.9102 67.1582 74.834 67.1758 74.752 67.1992C74.3652 67.293 73.9727 67.3691 73.5742 67.4277C73.1875 67.4863 72.7949 67.5156 72.3965 67.5156C71.9043 67.5156 71.4297 67.457 70.9727 67.3398C70.9727 67.3047 70.9609 67.2812 70.9375 67.2695C70.9141 67.2578 70.8848 67.2461 70.8496 67.2344C70.8262 67.2227 70.8027 67.2051 70.7793 67.1816C70.7559 67.1699 70.7559 67.1406 70.7793 67.0938C70.5215 67.0703 70.293 67.0059 70.0938 66.9004C69.9062 66.7949 69.7832 66.6074 69.7246 66.3379C69.6895 66.3613 69.6602 66.3906 69.6367 66.4258C69.6133 66.4609 69.5723 66.4727 69.5137 66.4609C69.3496 66.2266 69.168 66.0098 68.9688 65.8105C68.7695 65.6113 68.623 65.3711 68.5293 65.0898C68.5059 65.0312 68.4883 64.9727 68.4766 64.9141C68.4766 64.8672 68.4707 64.8145 68.459 64.7559C68.4004 64.5918 68.2949 64.5098 68.1426 64.5098C68.166 64.4629 68.1777 64.4043 68.1777 64.334C68.1777 64.2988 68.1719 64.2637 68.1602 64.2285C68.1602 64.1934 68.1602 64.1582 68.1602 64.123C68.1602 64.0645 68.1777 64.0059 68.2129 63.9473C68.0957 63.6777 68.0137 63.4141 67.9668 63.1562C67.9199 62.8867 67.8965 62.6113 67.8965 62.3301C67.8965 61.9668 67.9141 61.6094 67.9492 61.2578C67.9844 60.8945 68.002 60.5312 68.002 60.168C68.0723 60.0273 68.125 59.8633 68.1602 59.6758C68.207 59.4883 68.2832 59.3359 68.3887 59.2188C68.377 59.1484 68.3535 59.1133 68.3184 59.1133C68.2832 59.1016 68.2656 59.0664 68.2656 59.0078C68.2656 58.7969 68.3066 58.5684 68.3887 58.3223C68.4707 58.0762 68.5117 57.8242 68.5117 57.5664C68.6172 57.5078 68.6816 57.4199 68.7051 57.3027C68.7402 57.1855 68.8047 57.0918 68.8984 57.0215V56.9336C68.8984 56.7578 68.916 56.582 68.9512 56.4062C68.998 56.2305 69.0391 56.0605 69.0742 55.8965C69.1211 55.7207 69.1562 55.5508 69.1797 55.3867C69.2148 55.2109 69.2266 55.041 69.2148 54.877C69.2383 54.8418 69.2676 54.7773 69.3027 54.6836C69.3496 54.5781 69.3906 54.4727 69.4258 54.3672C69.4727 54.25 69.5078 54.1387 69.5312 54.0332C69.5664 53.9277 69.584 53.8516 69.584 53.8047C69.584 53.7344 69.5723 53.6699 69.5488 53.6113C69.5254 53.5527 69.5137 53.4883 69.5137 53.418C69.5137 53.3594 69.5312 53.2773 69.5664 53.1719C69.6016 53.0547 69.6309 52.9609 69.6543 52.8906C69.7012 52.6914 69.7422 52.4863 69.7773 52.2754C69.8242 52.0527 69.8652 51.8418 69.9004 51.6426C70.0059 50.998 70.082 50.3535 70.1289 49.709C70.1758 49.0527 70.2051 48.3965 70.2168 47.7402C70.3809 47.6465 70.5508 47.5586 70.7266 47.4766C70.9141 47.3945 71.1074 47.3535 71.3066 47.3535C71.3652 47.3535 71.4238 47.3594 71.4824 47.3711C71.541 47.3828 71.5996 47.4004 71.6582 47.4238C71.7168 47.6582 71.8105 47.8457 71.9395 47.9863C72.0684 48.127 72.1855 48.2969 72.291 48.4961C72.2207 48.6836 72.1738 48.877 72.1504 49.0762L72.0977 49.6738C72.0859 49.873 72.0625 50.0723 72.0273 50.2715C71.9922 50.459 71.9336 50.6406 71.8516 50.8164C71.875 50.875 71.8867 50.9336 71.8867 50.9922V51.168C71.8867 51.332 71.8691 51.4902 71.834 51.6426C71.8105 51.7949 71.7812 51.9531 71.7461 52.1172C71.7109 52.2695 71.6816 52.4219 71.6582 52.5742C71.6348 52.7266 71.6348 52.8789 71.6582 53.0312C71.623 53.0898 71.5879 53.1367 71.5527 53.1719C71.5176 53.1953 71.4941 53.2363 71.4824 53.2949L71.4473 53.6289C71.4238 53.7578 71.4004 53.8867 71.377 54.0156C71.3652 54.1328 71.3477 54.2559 71.3242 54.3848C71.2422 54.7363 71.1484 55.0879 71.043 55.4395C70.9492 55.791 70.9023 56.1543 70.9023 56.5293V56.6348C70.7969 56.7988 70.7148 57.0039 70.6562 57.25C70.5977 57.4844 70.5801 57.7012 70.6035 57.9004C70.4746 58.2402 70.3516 58.5742 70.2344 58.9023C70.1172 59.2305 70.0586 59.5703 70.0586 59.9219C70.0586 59.9805 70.0586 60.0449 70.0586 60.1152C70.0703 60.1738 70.082 60.2324 70.0938 60.291C70 60.5254 69.9414 60.7656 69.918 61.0117C69.8945 61.2461 69.8828 61.4805 69.8828 61.7148C69.8828 61.8789 69.8887 62.0723 69.9004 62.2949C69.9238 62.5059 69.9531 62.7285 69.9883 62.9629C70.0352 63.1855 70.0879 63.4023 70.1465 63.6133C70.2051 63.8242 70.2695 63.9941 70.3398 64.123C70.6094 64.5566 70.9609 64.8965 71.3945 65.1426C71.8398 65.4004 72.3086 65.5645 72.8008 65.6348C73 65.5645 73.1582 65.5234 73.2754 65.5117C73.4043 65.5 73.5801 65.5 73.8027 65.5117C73.9902 65.418 74.1777 65.3477 74.3652 65.3008C74.5645 65.2539 74.7637 65.2012 74.9629 65.1426C75.0215 65.1191 75.0801 65.0957 75.1387 65.0723C75.209 65.0488 75.2676 65.0254 75.3145 65.002C75.373 64.9785 75.4375 64.9258 75.5078 64.8438C75.5781 64.7617 75.6426 64.6914 75.7012 64.6328C75.9473 64.5625 76.1816 64.4629 76.4043 64.334C76.627 64.2168 76.8438 64.0938 77.0547 63.9648L77.7051 63.5781C77.9277 63.4492 78.1621 63.3379 78.4082 63.2441C78.502 63.209 78.5547 63.1621 78.5664 63.1035C78.5898 63.0332 78.625 62.9512 78.6719 62.8574C78.6953 62.8809 78.7305 62.8926 78.7773 62.8926C78.918 62.8926 79.0176 62.8516 79.0762 62.7695C79.1348 62.6758 79.2051 62.582 79.2871 62.4883C79.4395 62.4648 79.5859 62.4238 79.7266 62.3652C79.8672 62.2949 79.9727 62.1895 80.043 62.0488C80.3359 61.9902 80.5938 61.8848 80.8164 61.7324C81.0391 61.5801 81.2559 61.416 81.4668 61.2402C81.6777 61.0527 81.8887 60.877 82.0996 60.7129C82.3105 60.5371 82.5508 60.3965 82.8203 60.291C82.8555 60.2324 82.8789 60.1797 82.8906 60.1328C82.9023 60.0859 82.9199 60.0332 82.9434 59.9746C83.1426 59.9512 83.3008 59.8984 83.418 59.8164C83.5352 59.7227 83.6699 59.6289 83.8223 59.5352C84.1504 59.5703 84.3848 59.7168 84.5254 59.9746ZM86.582 61.5918C86.5234 61.6855 86.4531 61.7734 86.3711 61.8555C86.2891 61.9258 86.2129 62.002 86.1426 62.084C86.0605 62.1191 85.9668 62.1367 85.8613 62.1367C85.7676 62.1367 85.6738 62.1367 85.5801 62.1367C85.498 62.125 85.416 62.125 85.334 62.1367C85.2637 62.1367 85.2051 62.1602 85.1582 62.207C85.0645 62.1836 84.9941 62.1426 84.9473 62.084C84.9004 62.0137 84.8184 61.9727 84.7012 61.9609C84.6543 61.9492 84.6074 61.9492 84.5605 61.9609C84.3848 61.7617 84.2207 61.5508 84.0684 61.3281C83.9277 61.1055 83.793 60.8945 83.6641 60.6953C83.6523 60.2617 83.6172 59.8223 83.5586 59.377C83.5469 59.2715 83.5293 59.166 83.5059 59.0605C83.4824 58.9551 83.4648 58.8555 83.4531 58.7617C83.4531 58.6445 83.459 58.5332 83.4707 58.4277C83.4941 58.3105 83.5117 58.2051 83.5234 58.1113C83.5703 57.7715 83.623 57.4375 83.6816 57.1094C83.7402 56.7812 83.793 56.4473 83.8398 56.1074C83.8867 55.8027 83.9102 55.4863 83.9102 55.1582C83.9102 54.8184 83.8574 54.502 83.752 54.209L83.7344 54.1211C83.7578 54.0273 83.7812 53.9512 83.8047 53.8926C83.8398 53.8223 83.8633 53.7461 83.875 53.6641C83.8984 53.5352 83.8691 53.4414 83.7871 53.3828C83.8223 53.2891 83.8809 53.2305 83.9629 53.207C84.0449 53.1719 84.0918 53.1016 84.1035 52.9961C84.1152 52.9492 84.1152 52.9023 84.1035 52.8555C84.1973 52.8203 84.291 52.791 84.3848 52.7676C84.4902 52.7324 84.5898 52.7266 84.6836 52.75C84.8359 52.7734 84.9707 52.8262 85.0879 52.9082C85.2051 52.9785 85.3164 53.0605 85.4219 53.1543C85.6094 53.7168 85.6855 54.3145 85.6504 54.9473C85.6152 55.5684 85.5566 56.1953 85.4746 56.8281C85.3926 57.4609 85.3398 58.082 85.3164 58.6914C85.293 59.2891 85.3867 59.8457 85.5977 60.3613L85.6328 60.3789C85.6914 60.3906 85.7383 60.373 85.7734 60.3262C85.8086 60.2676 85.8555 60.2441 85.9141 60.2559C85.9609 60.2793 85.9902 60.291 86.002 60.291C86.0488 60.5254 86.125 60.748 86.2305 60.959C86.3359 61.1699 86.4531 61.3809 86.582 61.5918ZM106.568 54.2793C106.533 54.3848 106.463 54.4609 106.357 54.5078C106.264 54.543 106.164 54.5723 106.059 54.5957C105.953 54.6191 105.854 54.6602 105.76 54.7188C105.678 54.7656 105.625 54.8477 105.602 54.9648L105.566 54.9824C105.52 54.9824 105.484 54.9707 105.461 54.9473C105.449 54.9121 105.438 54.8828 105.426 54.8594C105.414 54.8242 105.396 54.7949 105.373 54.7715C105.361 54.7363 105.338 54.7188 105.303 54.7188C105.174 54.7188 105.045 54.7305 104.916 54.7539C104.799 54.7773 104.682 54.7891 104.564 54.7891C104.389 54.7891 104.23 54.7656 104.09 54.7188C104.008 54.7422 103.961 54.7949 103.949 54.877C103.949 54.959 103.914 55.0117 103.844 55.0352C103.785 55.0586 103.715 55.0703 103.633 55.0703C103.551 55.0586 103.469 55.0645 103.387 55.0879L102.824 55.2285C102.637 55.2754 102.449 55.2988 102.262 55.2988C102.156 55.2988 102.08 55.293 102.033 55.2812C101.857 55.4219 101.658 55.5273 101.436 55.5977C101.213 55.6562 100.979 55.7148 100.732 55.7734C100.498 55.8203 100.264 55.8848 100.029 55.9668C99.8066 56.0488 99.6074 56.1777 99.4316 56.3535C99.3379 56.3301 99.2559 56.3184 99.1855 56.3184C99.0332 56.3184 98.8984 56.3535 98.7812 56.4238C98.6641 56.4824 98.541 56.541 98.4121 56.5996C98.3535 56.623 98.2949 56.6348 98.2363 56.6348C98.1777 56.6348 98.1133 56.6465 98.043 56.6699C97.9727 56.6934 97.9258 56.7344 97.9023 56.793C97.8906 56.8398 97.8555 56.8867 97.7969 56.9336C97.7969 57.3555 97.8379 57.7773 97.9199 58.1992C98.002 58.6094 98.043 59.0254 98.043 59.4473V59.5176C98.0664 59.7168 98.1309 59.9043 98.2363 60.0801C98.3418 60.2441 98.3945 60.4141 98.3945 60.5898C98.3945 60.6484 98.3828 60.7129 98.3594 60.7832C98.6641 60.8535 98.8633 61.0117 98.957 61.2578C99.0625 61.4922 99.1445 61.75 99.2031 62.0312C99.2734 62.3008 99.3613 62.5527 99.4668 62.7871C99.584 63.0215 99.8066 63.168 100.135 63.2266C100.158 63.3438 100.176 63.4668 100.188 63.5957C100.199 63.7129 100.205 63.8301 100.205 63.9473C100.205 64.1113 100.188 64.2695 100.152 64.4219C100.117 64.5859 100.047 64.7324 99.9414 64.8613C99.7656 64.873 99.6367 64.8789 99.5547 64.8789C99.4727 64.8789 99.3496 64.9141 99.1855 64.9844C98.9512 64.8438 98.7402 64.6797 98.5527 64.4922C98.377 64.3164 98.207 64.1289 98.043 63.9297C97.8906 63.7188 97.7383 63.5078 97.5859 63.2969C97.4336 63.0742 97.2695 62.8633 97.0938 62.6641C96.4844 62.8164 95.8574 62.9219 95.2129 62.9805C94.5801 63.0273 93.9473 63.0508 93.3145 63.0508C93.291 63.0742 93.2559 63.0859 93.209 63.0859C93.1621 63.0859 93.1152 63.0918 93.0684 63.1035C93.0332 63.1035 92.998 63.1152 92.9629 63.1387C92.9395 63.1504 92.9336 63.1797 92.9453 63.2266C92.8633 63.1797 92.7695 63.1504 92.6641 63.1387C92.5703 63.1152 92.4824 63.1035 92.4004 63.1035C92.3418 63.1035 92.2832 63.1094 92.2246 63.1211C92.166 63.1211 92.1074 63.1387 92.0488 63.1738C91.6035 63.0918 91.1699 62.9805 90.748 62.8398C90.3379 62.6875 89.916 62.5645 89.4824 62.4707C89.4824 62.377 89.459 62.3125 89.4121 62.2773C89.3652 62.2305 89.3242 62.166 89.2891 62.084C88.7969 61.7793 88.3809 61.4102 88.041 60.9766C87.7129 60.543 87.5781 60.0156 87.6367 59.3945L87.5137 59.1484C87.5137 58.9609 87.5547 58.8262 87.6367 58.7441C87.5898 58.6621 87.5078 58.5801 87.3906 58.498C87.4961 58.334 87.5898 58.1641 87.6719 57.9883C87.7539 57.8125 87.8125 57.625 87.8477 57.4258C87.8594 57.3672 87.8652 57.3145 87.8652 57.2676C87.8652 57.2207 87.877 57.168 87.9004 57.1094C87.9238 57.0391 87.959 56.9629 88.0059 56.8809C88.041 56.7871 88.0762 56.7051 88.1113 56.6348C88.2988 56.2363 88.5039 55.8555 88.7266 55.4922C88.9609 55.1172 89.2539 54.7949 89.6055 54.5254C89.6289 54.3262 89.6875 54.1621 89.7812 54.0332C89.875 53.8926 89.9746 53.7695 90.0801 53.6641C90.1973 53.5469 90.3086 53.4297 90.4141 53.3125C90.5312 53.1953 90.6191 53.0547 90.6777 52.8906C90.9121 52.6914 91.1465 52.498 91.3809 52.3105C91.627 52.123 91.832 51.9004 91.9961 51.6426C92.207 51.5723 92.4062 51.4844 92.5938 51.3789C92.7812 51.2617 92.9395 51.1152 93.0684 50.9395C93.3496 50.916 93.625 50.8633 93.8945 50.7812C94.1758 50.6992 94.4688 50.6582 94.7734 50.6582C94.9023 50.6582 95.0547 50.6875 95.2305 50.7461C95.418 50.793 95.5586 50.8809 95.6523 51.0098C95.6641 51.0332 95.6699 51.0625 95.6699 51.0977L95.6875 51.1855C95.6992 51.209 95.7109 51.2324 95.7227 51.2559C95.7461 51.2676 95.7812 51.2676 95.8281 51.2559C95.8281 51.5137 95.7988 51.7773 95.7402 52.0469C95.6816 52.3047 95.5293 52.5039 95.2832 52.6445C95.1309 52.5977 94.9668 52.5742 94.791 52.5742C94.5566 52.5742 94.3398 52.6211 94.1406 52.7148C93.9531 52.7969 93.7656 52.8965 93.5781 53.0137C93.4023 53.1191 93.2207 53.2305 93.0332 53.3477C92.8457 53.4531 92.6465 53.5293 92.4355 53.5762C92.4121 53.6699 92.3887 53.7578 92.3652 53.8398C92.3535 53.9102 92.3594 53.9922 92.3828 54.0859C92.3242 54.0859 92.2773 54.0801 92.2422 54.0684C92.2188 54.0449 92.1777 54.0332 92.1191 54.0332C92.0371 54.0332 91.9785 54.0801 91.9434 54.1738C91.9199 54.2676 91.8965 54.3438 91.873 54.4023C91.6504 54.4961 91.4629 54.6309 91.3105 54.8066C91.1699 54.9707 91.0352 55.1523 90.9062 55.3516C90.7891 55.5391 90.6602 55.7207 90.5195 55.8965C90.3789 56.0723 90.2031 56.207 89.9922 56.3008C89.8984 56.6758 89.8047 57.0449 89.7109 57.4082C89.6289 57.7715 89.5293 58.1348 89.4121 58.498C89.4473 58.6387 89.4648 58.7852 89.4648 58.9375C89.4648 59.125 89.4473 59.2949 89.4121 59.4473C89.4707 59.541 89.5293 59.6523 89.5879 59.7812L89.7988 60.1855C89.8691 60.3262 89.9395 60.4551 90.0098 60.5723C90.0918 60.6895 90.168 60.7773 90.2383 60.8359C90.3672 60.9297 90.5664 61.0176 90.8359 61.0996C91.1055 61.1699 91.3457 61.293 91.5566 61.4688C91.5801 61.4688 91.6094 61.4688 91.6445 61.4688C91.6797 61.457 91.709 61.4512 91.7324 61.4512C91.873 61.4512 92.0254 61.4863 92.1895 61.5566C92.3535 61.627 92.459 61.6621 92.5059 61.6621C93.1621 61.6621 93.877 61.6211 94.6504 61.5391C95.4238 61.4453 96.1387 61.334 96.7949 61.2051C96.8184 61.0879 96.8301 60.9883 96.8301 60.9062C96.8301 60.7539 96.8066 60.6074 96.7598 60.4668C96.7129 60.3145 96.6367 60.1855 96.5312 60.0801C96.5312 59.9043 96.5312 59.7285 96.5312 59.5527C96.543 59.377 96.5488 59.2012 96.5488 59.0254C96.5488 58.7324 96.5371 58.4219 96.5137 58.0938C96.4902 57.7656 96.4316 57.4609 96.3379 57.1797H96.3027C96.1504 57.1797 96.0098 57.2207 95.8809 57.3027C95.7637 57.373 95.6406 57.4082 95.5117 57.4082C95.4414 57.4082 95.3828 57.3906 95.3359 57.3555C95.1953 57.5195 95.0254 57.6426 94.8262 57.7246C94.627 57.8066 94.416 57.8828 94.1934 57.9531C93.9707 58.0117 93.748 58.0762 93.5254 58.1465C93.3145 58.2168 93.1211 58.3164 92.9453 58.4453C92.8516 58.4102 92.7637 58.3926 92.6816 58.3926C92.5996 58.3926 92.5176 58.3984 92.4355 58.4102C92.3652 58.4219 92.2832 58.4336 92.1895 58.4453C91.9434 58.2344 91.8203 57.9707 91.8203 57.6543C91.8203 57.4902 91.8438 57.332 91.8906 57.1797C91.9492 57.0156 92.0254 56.8633 92.1191 56.7227C92.1777 56.6875 92.248 56.6699 92.3301 56.6699C92.4121 56.6582 92.4941 56.6465 92.5762 56.6348C92.6582 56.6113 92.7227 56.582 92.7695 56.5469C92.8281 56.5117 92.8633 56.4473 92.875 56.3535C92.9102 56.3887 92.9395 56.4062 92.9629 56.4062C92.9863 56.4062 93.0098 56.4004 93.0332 56.3887C93.0566 56.377 93.0801 56.3711 93.1035 56.3711C93.127 56.3711 93.1445 56.3828 93.1562 56.4062C93.1797 56.4297 93.1914 56.4531 93.1914 56.4766C93.6953 56.207 94.2109 55.9785 94.7383 55.791C95.2656 55.6035 95.7988 55.4336 96.3379 55.2812C96.8887 55.1289 97.4395 54.9883 97.9902 54.8594C98.541 54.7188 99.0859 54.5664 99.625 54.4023C99.707 54.332 99.7949 54.2793 99.8887 54.2441C99.9824 54.209 100.064 54.1562 100.135 54.0859C100.217 54.1328 100.316 54.1562 100.434 54.1562C100.598 54.1562 100.773 54.127 100.961 54.0684C101.16 53.998 101.324 53.916 101.453 53.8223C101.5 53.834 101.541 53.8398 101.576 53.8398H101.699C101.934 53.8398 102.15 53.8047 102.35 53.7344C102.561 53.6641 102.766 53.5703 102.965 53.4531H103.053C103.416 53.4531 103.773 53.4121 104.125 53.3301C104.488 53.248 104.857 53.207 105.232 53.207C105.713 53.207 106.135 53.3301 106.498 53.5762V53.7871C106.498 53.8809 106.498 53.9688 106.498 54.0508C106.51 54.1211 106.533 54.1973 106.568 54.2793ZM112.457 55.791C112.41 55.9082 112.363 56.0195 112.316 56.125C112.27 56.2305 112.234 56.3477 112.211 56.4766C112.129 56.5352 112.035 56.582 111.93 56.6172C111.836 56.6406 111.736 56.6699 111.631 56.7051C111.525 56.7285 111.426 56.7637 111.332 56.8105C111.25 56.8457 111.186 56.9043 111.139 56.9863C111.104 57.1621 111.086 57.3262 111.086 57.4785C111.086 57.6777 111.121 57.8477 111.191 57.9883C111.156 58.0938 111.133 58.2051 111.121 58.3223C111.109 58.4395 111.104 58.5508 111.104 58.6562C111.104 59.043 111.15 59.4297 111.244 59.8164C111.338 60.1914 111.391 60.5723 111.402 60.959C111.402 61.0176 111.396 61.082 111.385 61.1523C111.373 61.2227 111.367 61.2871 111.367 61.3457C111.367 61.5918 111.461 61.7559 111.648 61.8379C111.613 61.8965 111.596 61.9492 111.596 61.9961C111.596 62.0898 111.607 62.1719 111.631 62.2422C111.654 62.3125 111.66 62.3887 111.648 62.4707C111.707 62.5879 111.766 62.6934 111.824 62.7871C111.883 62.8691 111.924 62.9746 111.947 63.1035C111.865 63.2676 111.766 63.4199 111.648 63.5605C111.531 63.6895 111.449 63.8535 111.402 64.0527C111.355 64.041 111.303 64.0352 111.244 64.0352C111.162 64.0352 111.098 64.0527 111.051 64.0879C111.004 64.123 110.963 64.1641 110.928 64.2109C110.904 64.2695 110.875 64.3223 110.84 64.3691C110.805 64.4277 110.758 64.4688 110.699 64.4922H110.646C110.588 64.5039 110.535 64.498 110.488 64.4746C110.453 64.4629 110.418 64.457 110.383 64.457C110.359 64.457 110.312 64.4688 110.242 64.4922C110.148 64.375 110.084 64.2344 110.049 64.0703C110.014 63.918 109.996 63.7656 109.996 63.6133C109.996 63.4492 110.02 63.3027 110.066 63.1738C109.938 63.0684 109.855 62.9102 109.82 62.6992C109.797 62.4883 109.768 62.3125 109.732 62.1719C109.639 61.7383 109.527 61.3164 109.398 60.9062C109.281 60.4961 109.211 60.0742 109.188 59.6406C109.176 59.4766 109.17 59.3184 109.17 59.166V58.252C109.17 58.0996 109.176 57.9531 109.188 57.8125C109.188 57.707 109.193 57.6074 109.205 57.5137C109.229 57.4082 109.24 57.3027 109.24 57.1973C109.24 57.0566 109.193 56.9219 109.1 56.793C108.268 56.8281 107.477 56.9805 106.727 57.25C105.988 57.5078 105.25 57.8184 104.512 58.1816C104.465 58.4512 104.436 58.7148 104.424 58.9727C104.412 59.2305 104.406 59.4941 104.406 59.7637V60.5371C104.406 60.8301 104.418 61.0762 104.441 61.2754C104.5 61.6152 104.67 61.8789 104.951 62.0664C105.244 62.2422 105.537 62.377 105.83 62.4707C105.818 62.6465 105.783 62.7988 105.725 62.9277C105.666 63.0449 105.59 63.1562 105.496 63.2617C105.414 63.3555 105.32 63.4492 105.215 63.543C105.109 63.6367 105.004 63.7422 104.898 63.8594C104.805 63.8008 104.711 63.7598 104.617 63.7363C104.523 63.7129 104.424 63.7012 104.318 63.7012C104.213 63.6895 104.107 63.6777 104.002 63.666C103.896 63.6543 103.791 63.6309 103.686 63.5957L103.299 63.0684C103.17 62.8926 103.029 62.7168 102.877 62.541V62.3828C102.877 62.0664 102.818 61.7617 102.701 61.4688C102.584 61.1758 102.496 60.877 102.438 60.5723C102.473 60.4668 102.496 60.3613 102.508 60.2559C102.52 60.1504 102.525 60.0391 102.525 59.9219C102.525 59.6875 102.514 59.459 102.49 59.2363C102.479 59.0137 102.484 58.791 102.508 58.5684H102.42C102.314 58.5684 102.203 58.5977 102.086 58.6562C101.969 58.7031 101.852 58.7617 101.734 58.832C101.629 58.8906 101.523 58.9492 101.418 59.0078C101.324 59.0547 101.242 59.0781 101.172 59.0781C101.137 59.0781 101.102 59.0723 101.066 59.0605C101.031 59.0488 100.99 59.043 100.943 59.043C100.885 59.043 100.814 59.0664 100.732 59.1133C100.65 59.1602 100.562 59.2129 100.469 59.2715C100.363 59.3184 100.258 59.3652 100.152 59.4121C100.047 59.459 99.9414 59.4824 99.8359 59.4824C99.6719 59.4824 99.5078 59.4121 99.3438 59.2715C99.3203 59.1777 99.3145 59.0898 99.3262 59.0078C99.3262 58.9258 99.3262 58.8379 99.3262 58.7441C99.3262 58.6504 99.3086 58.5508 99.2734 58.4453C99.3555 58.293 99.4668 58.1758 99.6074 58.0938C99.7363 58 99.877 57.918 100.029 57.8477C100.17 57.7656 100.316 57.6895 100.469 57.6191C100.621 57.5371 100.75 57.4316 100.855 57.3027H100.961C101.125 57.3027 101.271 57.2676 101.4 57.1973C101.541 57.127 101.699 57.0977 101.875 57.1094C101.934 57.0859 101.975 56.998 101.998 56.8457L102.068 56.8633C102.326 56.8633 102.555 56.7754 102.754 56.5996C102.883 55.873 102.988 55.1406 103.07 54.4023C103.152 53.6641 103.193 52.9258 103.193 52.1875C103.193 52.1172 103.17 52.0469 103.123 51.9766C103.1 51.8828 103.088 51.7949 103.088 51.7129V51.4492C103.088 51.3203 103.094 51.1855 103.105 51.0449C103.117 50.9043 103.146 50.7637 103.193 50.623C103.311 50.5527 103.434 50.5176 103.562 50.5176C103.715 50.5176 103.861 50.541 104.002 50.5879C104.154 50.623 104.301 50.6523 104.441 50.6758C104.547 50.7812 104.623 50.8984 104.67 51.0273C104.729 51.1562 104.764 51.291 104.775 51.4316C104.787 51.5605 104.787 51.6953 104.775 51.8359C104.775 51.9648 104.775 52.0938 104.775 52.2227C104.775 52.4805 104.805 52.7324 104.863 52.9785C104.922 53.2246 104.951 53.4648 104.951 53.6992C104.951 53.7578 104.928 53.8047 104.881 53.8398C104.846 53.8633 104.828 53.9395 104.828 54.0684C104.828 54.1973 104.84 54.332 104.863 54.4727C104.887 54.6133 104.898 54.7539 104.898 54.8945C104.898 55.0586 104.875 55.2285 104.828 55.4043C104.781 55.5801 104.74 55.75 104.705 55.9141C105.408 55.8555 106.129 55.7676 106.867 55.6504C107.605 55.5332 108.309 55.3457 108.977 55.0879C108.988 55.0645 108.994 55.0293 108.994 54.9824C108.994 54.9121 108.988 54.8418 108.977 54.7715C108.965 54.7012 108.959 54.625 108.959 54.543C108.959 54.4023 109.006 54.291 109.1 54.209C109.041 53.8809 109 53.5527 108.977 53.2246C108.953 52.8965 108.941 52.5684 108.941 52.2402V51.2383C108.941 50.9102 108.936 50.582 108.924 50.2539C109.018 50.1953 109.117 50.166 109.223 50.166C109.352 50.166 109.469 50.2012 109.574 50.2715C109.691 50.3301 109.826 50.3594 109.979 50.3594C110.084 50.3594 110.172 50.3418 110.242 50.3066C110.371 50.4238 110.459 50.5762 110.506 50.7637C110.553 50.9512 110.594 51.1445 110.629 51.3438C110.664 51.543 110.699 51.7422 110.734 51.9414C110.781 52.1289 110.869 52.2812 110.998 52.3984L111.016 52.4512C111.016 52.498 110.992 52.5332 110.945 52.5566C110.898 52.5801 110.875 52.627 110.875 52.6973V52.7676C110.922 52.9551 110.957 53.1484 110.98 53.3477C111.004 53.5469 111.021 53.752 111.033 53.9629C111.057 54.1621 111.086 54.3613 111.121 54.5605C111.156 54.748 111.221 54.9238 111.314 55.0879C111.373 55.0762 111.449 55.0703 111.543 55.0703C111.777 55.0703 111.959 55.1523 112.088 55.3164C112.229 55.4688 112.352 55.627 112.457 55.791ZM128.717 52.6973C128.67 52.8496 128.594 52.9902 128.488 53.1191L128.189 53.4883C128.096 53.6055 128.014 53.7344 127.943 53.875C127.885 54.0039 127.867 54.1562 127.891 54.332C127.867 54.332 127.838 54.332 127.803 54.332C127.768 54.3203 127.738 54.3145 127.715 54.3145C127.527 54.3145 127.381 54.3613 127.275 54.4551C127.182 54.5371 127.053 54.6074 126.889 54.666C126.865 54.5957 126.836 54.5312 126.801 54.4727C126.766 54.4023 126.713 54.3555 126.643 54.332C126.361 54.3906 126.08 54.4375 125.799 54.4727C125.518 54.4961 125.236 54.5312 124.955 54.5781C124.826 54.6016 124.697 54.6367 124.568 54.6836C124.439 54.7188 124.305 54.7539 124.164 54.7891C124.094 54.8125 124.018 54.8242 123.936 54.8242C123.854 54.8125 123.771 54.8125 123.689 54.8242C123.408 54.8359 123.104 54.8594 122.775 54.8945C122.447 54.918 122.154 55.0059 121.896 55.1582C121.779 55.1348 121.656 55.1172 121.527 55.1055C121.398 55.0938 121.27 55.0879 121.141 55.0879C120.859 55.0879 120.549 55.1172 120.209 55.1758C119.881 55.2227 119.588 55.3223 119.33 55.4746C119.271 55.4512 119.207 55.4336 119.137 55.4219C119.078 55.4102 119.008 55.4043 118.926 55.4043C118.902 55.4043 118.885 55.4102 118.873 55.4219C118.861 55.4219 118.844 55.4219 118.82 55.4219C118.809 55.5273 118.82 55.6328 118.855 55.7383C118.902 55.832 118.979 55.9082 119.084 55.9668C119.037 56.0957 119.014 56.2363 119.014 56.3887C119.014 56.5879 119.025 56.7871 119.049 56.9863C119.084 57.1855 119.102 57.3848 119.102 57.584C119.102 57.8066 119.072 57.9824 119.014 58.1113C119.131 58.4629 119.189 58.8379 119.189 59.2363C119.189 59.377 119.178 59.5176 119.154 59.6582C119.143 59.7871 119.137 59.9277 119.137 60.0801C119.137 60.209 119.184 60.3145 119.277 60.3965C119.371 60.4668 119.418 60.5664 119.418 60.6953C119.418 60.7422 119.406 60.7891 119.383 60.8359C119.547 60.8008 119.705 60.7539 119.857 60.6953C120.01 60.625 120.168 60.5898 120.332 60.5898C120.426 60.5898 120.514 60.6074 120.596 60.6426C120.689 60.6777 120.771 60.7246 120.842 60.7832C120.83 60.8418 120.818 60.9062 120.807 60.9766C120.807 61.0469 120.807 61.1172 120.807 61.1875C120.807 61.3164 120.807 61.4395 120.807 61.5566C120.818 61.6621 120.83 61.7793 120.842 61.9082C120.748 62.0723 120.637 62.2188 120.508 62.3477C120.391 62.4766 120.309 62.6406 120.262 62.8398C120.086 62.8398 119.928 62.8809 119.787 62.9629C119.658 63.0332 119.535 63.1152 119.418 63.209C119.301 63.291 119.184 63.373 119.066 63.4551C118.949 63.5254 118.82 63.5605 118.68 63.5605C118.504 63.5605 118.381 63.5371 118.311 63.4902C118.24 63.4316 118.188 63.373 118.152 63.3145C118.117 63.2559 118.082 63.2031 118.047 63.1562C118.023 63.1094 117.965 63.0918 117.871 63.1035C117.848 62.9512 117.801 62.8105 117.73 62.6816C117.66 62.541 117.584 62.4062 117.502 62.2773C117.432 62.1484 117.355 62.0195 117.273 61.8906C117.203 61.75 117.15 61.6094 117.115 61.4688C117.045 61.1641 117.016 60.8477 117.027 60.5195C117.039 60.1914 116.986 59.875 116.869 59.5703C116.893 59.4062 116.91 59.2422 116.922 59.0781C116.934 58.9023 116.939 58.7324 116.939 58.5684C116.939 58.2402 116.928 57.918 116.904 57.6016C116.893 57.2734 116.881 56.9395 116.869 56.5996C116.787 56.4941 116.734 56.377 116.711 56.248C116.699 56.1074 116.688 55.9727 116.676 55.8438C116.641 55.8086 116.6 55.7734 116.553 55.7383C116.518 55.7031 116.494 55.6562 116.482 55.5977C116.389 55.5742 116.318 55.5625 116.271 55.5625C116.107 55.5625 115.967 55.6035 115.85 55.6855C115.744 55.7559 115.645 55.791 115.551 55.791C115.457 55.791 115.369 55.7793 115.287 55.7559C115.205 55.7324 115.123 55.7207 115.041 55.7207C114.971 55.7207 114.93 55.7383 114.918 55.7734C114.918 55.7969 114.895 55.8203 114.848 55.8438C114.812 55.8672 114.73 55.8906 114.602 55.9141C114.473 55.9375 114.326 55.9609 114.162 55.9844C114.01 55.9961 113.857 56.0078 113.705 56.0195C113.564 56.0312 113.471 56.0371 113.424 56.0371C113.236 56.0371 113.096 56.002 113.002 55.9316C112.896 55.8496 112.773 55.7617 112.633 55.668C112.656 55.5977 112.668 55.5508 112.668 55.5273C112.668 55.4102 112.633 55.3164 112.562 55.2461C112.492 55.1641 112.457 55.0938 112.457 55.0352C112.457 54.9062 112.51 54.8066 112.615 54.7363C112.709 54.666 112.762 54.5547 112.773 54.4023C113.043 54.2852 113.318 54.1973 113.6 54.1387C113.881 54.0801 114.168 54.0332 114.461 53.998C114.754 53.9629 115.041 53.9219 115.322 53.875C115.615 53.8281 115.902 53.752 116.184 53.6465C116.266 53.6582 116.342 53.6699 116.412 53.6816C116.494 53.6816 116.576 53.6816 116.658 53.6816C117.01 53.6816 117.355 53.6465 117.695 53.5762C118.047 53.4941 118.404 53.4531 118.768 53.4531C118.861 53.4531 118.955 53.459 119.049 53.4707C119.143 53.4824 119.236 53.5 119.33 53.5234C119.799 53.4531 120.262 53.377 120.719 53.2949C121.188 53.2129 121.668 53.1426 122.16 53.084C122.395 53.0605 122.623 53.043 122.846 53.0312C123.08 53.0078 123.314 52.9785 123.549 52.9434C123.631 52.9316 123.689 52.9141 123.725 52.8906C123.771 52.8555 123.795 52.791 123.795 52.6973C123.9 52.7441 124.018 52.7676 124.146 52.7676C124.346 52.7676 124.539 52.7324 124.727 52.6621C124.914 52.5918 125.107 52.5566 125.307 52.5566C125.354 52.5566 125.395 52.5625 125.43 52.5742C125.465 52.5742 125.5 52.5742 125.535 52.5742C125.617 52.5742 125.658 52.5391 125.658 52.4688C125.67 52.3867 125.729 52.334 125.834 52.3105C125.916 52.2871 126.033 52.2695 126.186 52.2578C126.338 52.2461 126.496 52.2344 126.66 52.2227C126.836 52.1992 126.994 52.1758 127.135 52.1523C127.287 52.1172 127.398 52.0703 127.469 52.0117L127.592 51.8184C127.803 51.8301 127.955 51.9238 128.049 52.0996C128.154 52.2637 128.213 52.4453 128.225 52.6445C128.271 52.6914 128.336 52.7148 128.418 52.7148C128.512 52.7031 128.594 52.6973 128.664 52.6973H128.717Z" fill="#47C15A"/>
<path fill-rule="evenodd" clip-rule="evenodd" d="M179.191 65.1551L177.432 64.1256L34.4758 88.8505L34.503 88.891C42.6171 100.922 71.2533 105.822 101.059 104.096L87.0923 94.8753L108.907 103.491C110.65 103.322 112.392 103.132 114.127 102.919L98.0367 92.2953L122.058 101.782C127.056 100.96 131.956 99.9479 136.66 98.7491C166.356 91.1822 179.675 78.3584 179.191 65.1551Z" fill="url(#paint0_linear)"/>
<g filter="url(#filter0_d)">
<path d="M58.8285 86.6172C20.0628 96.4953 5.61011 96.2086 5.61011 96.2086C5.61011 96.2086 17.6108 89.1811 54.2854 79.8358C103.977 67.1738 177.432 64.1254 177.432 64.1254C177.432 64.1254 97.5943 76.7391 58.8285 86.6172Z" fill="#E7F8E9" fill-opacity="0.87"/>
<mask id="mask0" style="mask-type:alpha" maskUnits="userSpaceOnUse" x="5" y="64" width="173" height="33">
<path d="M58.8285 86.6172C20.0628 96.4953 5.61011 96.2086 5.61011 96.2086C5.61011 96.2086 15.5197 89.7139 54.2854 79.8358C93.0512 69.9577 177.432 64.1254 177.432 64.1254C177.432 64.1254 97.5943 76.7391 58.8285 86.6172Z" fill="#E2E9FA"/>
</mask>
<g mask="url(#mask0)">
<g filter="url(#filter1_f)">
<path fill-rule="evenodd" clip-rule="evenodd" d="M177.43 64.1253C177.431 64.1252 177.432 64.1252 177.432 64.1252C177.432 64.1252 98.3777 77.3293 59.281 87.2918C52.4034 89.0443 46.2848 90.4562 40.8708 91.593C34.2634 92.9804 28.7056 93.9582 24.099 94.6455C11.0241 96.5964 5.61228 96.208 5.61228 96.208L56.5592 83.226C95.177 73.3856 176.808 64.1953 177.43 64.1253Z" fill="#44FD62" fill-opacity="0.54"/>
</g>
</g>
</g>
<defs>
<filter id="filter0_d" x="5.61035" y="62.1254" width="175.821" height="36.084" filterUnits="userSpaceOnUse" color-interpolation-filters="sRGB">
<feFlood flood-opacity="0" result="BackgroundImageFix"/>
<feColorMatrix in="SourceAlpha" type="matrix" values="0 0 0 0 0 0 0 0 0 0 0 0 0 0 0 0 0 0 127 0" result="hardAlpha"/>
<feOffset dx="2"/>
<feGaussianBlur stdDeviation="1"/>
<feColorMatrix type="matrix" values="0 0 0 0 0.791667 0 0 0 0 0.45633 0 0 0 0 0.0626736 0 0 0 0.19 0"/>
<feBlend mode="normal" in2="BackgroundImageFix" result="effect1_dropShadow"/>
<feBlend mode="normal" in="SourceGraphic" in2="effect1_dropShadow" result="shape"/>
</filter>
<filter id="filter1_f" x="-10.3877" y="48.1252" width="203.819" height="64.1143" filterUnits="userSpaceOnUse" color-interpolation-filters="sRGB">
<feFlood flood-opacity="0" result="BackgroundImageFix"/>
<feBlend mode="normal" in="SourceGraphic" in2="BackgroundImageFix" result="shape"/>
<feGaussianBlur stdDeviation="8" result="effect1_foregroundBlur"/>
</filter>
<linearGradient id="paint0_linear" x1="183.669" y1="50.834" x2="71.3639" y2="138.343" gradientUnits="userSpaceOnUse">
<stop stop-color="#C4F4C8" stop-opacity="0"/>
<stop offset="1" stop-color="#B2EFB8"/>
</linearGradient>
</defs>
</svg>
